<svg xmlns="http://www.w3.org/2000/svg" width="24" height="24" viewBox="-14 -6 60 40" fill="none" stroke="#000000" stroke-width="2" stroke-linecap="round" stroke-linejoin="round"><path d="M 31.92 3.62 a 1.945 1.945 0 0 0 -1.953 -1.932 H 1.874 A 1.945 1.945 0 0 0 -0.08 3.62 v 10.068 h 32 Z m -32 11.692 v 7.201 a 2.027 2.027 0 0 0 1.954 1.998 h 8.711 a 2.777 2.777 0 0 1 2.178 1.073 q 2.97 4.736 3.315 4.728 q 0.344 -0.009 3.315 -4.837 a 2.677 2.677 0 0 1 2.177 -0.964 h 8.398 a 2.027 2.027 0 0 0 1.953 -1.998 v -7.201 Z m 14 5.15 c 0 0.056 -0.07 0.1 -0.155 0.1 H 3.077 c -0.086 0 -0.156 -0.044 -0.156 -0.1 v -1.051 c 0 -0.055 0.07 -0.1 0.156 -0.1 h 10.688 c 0.086 0 0.156 0.045 0.156 0.1 Z"></path></svg>
